<svg width="22" height="22" viewBox="0 0 22 22" fill="none" xmlns="http://www.w3.org/2000/svg">
<path fill-rule="evenodd" clip-rule="evenodd" d="M14.9374 8.80505L10.7501 14.3051C10.5778 14.5315 10.311 14.6653 10.0269 14.6671H10.0204C9.73903 14.6671 9.47319 14.537 9.29903 14.3151L7.06969 11.4671C6.75803 11.0692 6.82769 10.4926 7.22644 10.181C7.62428 9.86838 8.20178 9.93805 8.51344 10.3377L10.0104 12.2499L13.479 7.69497C13.7852 7.29255 14.3599 7.21372 14.7642 7.5208C15.1666 7.82788 15.2445 8.40263 14.9374 8.80505ZM11.0004 1.8338C5.93761 1.8338 1.83369 5.93772 1.83369 11.0005C1.83369 16.0623 5.93761 20.1671 11.0004 20.1671C16.0631 20.1671 20.167 16.0623 20.167 11.0005C20.167 5.93772 16.0631 1.8338 11.0004 1.8338Z" fill="#ABBBC2"/>
<mask id="mask0_1412_7548" style="mask-type:luminance" maskUnits="userSpaceOnUse" x="1" y="1" width="20" height="20">
<path fill-rule="evenodd" clip-rule="evenodd" d="M14.9374 8.80505L10.7501 14.3051C10.5778 14.5315 10.311 14.6653 10.0269 14.6671H10.0204C9.73903 14.6671 9.47319 14.537 9.29903 14.3151L7.06969 11.4671C6.75803 11.0692 6.82769 10.4926 7.22644 10.181C7.62428 9.86838 8.20178 9.93805 8.51344 10.3377L10.0104 12.2499L13.479 7.69497C13.7852 7.29255 14.3599 7.21372 14.7642 7.5208C15.1666 7.82788 15.2445 8.40263 14.9374 8.80505ZM11.0004 1.8338C5.93761 1.8338 1.83369 5.93772 1.83369 11.0005C1.83369 16.0623 5.93761 20.1671 11.0004 20.1671C16.0631 20.1671 20.167 16.0623 20.167 11.0005C20.167 5.93772 16.0631 1.8338 11.0004 1.8338Z" fill="white"/>
</mask>
<g mask="url(#mask0_1412_7548)">
<rect width="22" height="22" fill="#ABBBC2"/>
</g>
</svg>
