<svg width="16" height="16" viewBox="0 0 16 16" fill="none" xmlns="http://www.w3.org/2000/svg">
<path d="M15.3326 14.0075C15.6356 14.0075 15.8813 14.2484 15.8813 14.5455C15.8813 14.8178 15.6749 15.0429 15.407 15.0785L15.3326 15.0834H9.60717C9.30409 15.0834 9.05839 14.8426 9.05839 14.5455C9.05839 14.2731 9.26485 14.0481 9.53271 14.0124L9.60717 14.0075H15.3326ZM9.76403 1.6806C10.803 0.662132 12.4882 0.662132 13.5272 1.6806L14.6058 2.73791C15.6448 3.75638 15.6448 5.40829 14.6058 6.42675L6.49852 14.3739C6.03493 14.8283 5.4064 15.0833 4.75036 15.0833H1.43013C1.12169 15.0833 0.873835 14.8342 0.881522 14.532L0.965041 11.248C0.981645 10.6273 1.24074 10.0355 1.68857 9.59653L9.76403 1.6806ZM9.13635 3.81592L2.46466 10.3573C2.21573 10.6013 2.07146 10.9308 2.06224 11.2755L1.99256 14.0071L4.75036 14.0075C5.07487 14.0075 5.38693 13.8955 5.63325 13.6932L5.72243 13.6131L12.4272 7.04092L9.13635 3.81592ZM12.7511 2.44136C12.1408 1.84305 11.1505 1.84305 10.5401 2.44136L9.91301 3.05508L13.203 6.28008L13.8297 5.66599C14.4062 5.10092 14.4382 4.20369 13.9258 3.60171L13.8297 3.49867L12.7511 2.44136Z" fill="#EA7C69"/>
</svg>
